<?xml version="1.0" encoding="UTF-8"?>
<svg id="Layer_1" xmlns="http://www.w3.org/2000/svg" xmlns:xlink="http://www.w3.org/1999/xlink" version="1.1" viewBox="0 0 236.5 68.1">
  <!-- Generator: Adobe Illustrator 30.1.0, SVG Export Plug-In . SVG Version: 2.1.1 Build 136)  -->
  <defs>
    <style>
      .st0 {
        fill: url(#linear-gradient1);
      }

      .st1 {
        fill: url(#linear-gradient);
      }

      .st2 {
        fill: #2f2a3e;
      }

      .st3 {
        fill: #f4a582;
      }
    </style>
    <linearGradient id="linear-gradient" x1="25.6" y1="28.3" x2="45.8" y2="48.5" gradientUnits="userSpaceOnUse">
      <stop offset="0" stop-color="#f5c98a"/>
      <stop offset=".6" stop-color="#f4a582"/>
      <stop offset="1" stop-color="#e8a0bf"/>
    </linearGradient>
    <linearGradient id="linear-gradient1" x1="7.6" y1="57.2" x2="63.8" y2="57.2" gradientUnits="userSpaceOnUse">
      <stop offset="0" stop-color="#f5c98a" stop-opacity=".6"/>
      <stop offset=".6" stop-color="#f4a582" stop-opacity=".6"/>
      <stop offset="1" stop-color="#e8a0bf" stop-opacity=".6"/>
    </linearGradient>
  </defs>
  <circle class="st1" cx="35.7" cy="38.4" r="14.3"/>
  <rect class="st3" x="18.1" y="15.5" width="4.7" height="10.6" rx="2.4" ry="2.4" transform="translate(-8.5 18) rotate(-40)"/>
  <rect class="st3" x="33.3" y="7.7" width="4.7" height="12.9" rx="2.4" ry="2.4"/>
  <rect class="st3" x="9.4" y="27.2" width="5" height="9.4" rx="2.5" ry="2.5" transform="translate(-22 34.6) rotate(-74)"/>
  <rect class="st3" x="56.5" y="27.2" width="5" height="9.4" rx="2.5" ry="2.5" transform="translate(73.4 -33.6) rotate(74)"/>
  <rect class="st3" x="48.1" y="15.5" width="4.7" height="10.6" rx="2.4" ry="2.4" transform="translate(25.1 -27.6) rotate(40)"/>
  <rect id="Horizon" class="st0" x="7.6" y="55.7" width="56.3" height="3" rx="1.5" ry="1.5"/>
  <g>
    <path class="st2" d="M90.4,5.5v53c0,.7,0,1.2.3,1.5s.5.5.9.7l1.5.4c.4.1.7.3.8.5s.2.4.2.7-.1.7-.4.9c-.3.2-.7.3-1.2.3h-17.4c-.5,0-.9-.1-1.2-.3-.3-.2-.4-.5-.4-.9s0-.5.3-.7c.2-.2.5-.4.9-.5l1.5-.4c.4-.1.7-.4.9-.7.2-.3.3-.8.3-1.5V11.9c0-.5,0-.9-.2-1.1-.2-.2-.4-.3-.8-.4h-1.8c-.3-.2-.6-.3-.8-.5-.2-.2-.2-.4-.2-.7s.1-.6.3-.8c.2-.2.6-.4,1.1-.6l10.5-3.4c.8-.3,1.4-.5,1.9-.6.4-.1.8-.2,1.2-.2.7,0,1.2.2,1.5.5.3.4.5.8.5,1.4Z"/>
    <path class="st2" d="M99.1,53.3v-19.3c0-.5,0-.9-.2-1.1s-.4-.4-.8-.4h-1.8c-.3-.2-.6-.3-.8-.5s-.2-.4-.2-.7.1-.6.3-.8.6-.4,1.1-.6l10.5-3.4c.8-.3,1.4-.5,1.9-.6.4-.1.8-.2,1.2-.2.6,0,1.1.2,1.5.5.3.3.5.8.5,1.4v24c0,2,.5,3.5,1.4,4.5.9,1,2.2,1.5,3.7,1.5s2.1-.2,3.1-.7c1.1-.4,2.1-1.1,3.1-2l1.5-1.3,1.4,1.4-1.4,1.3c-3.3,3-6.1,5.1-8.7,6.3-2.5,1.2-4.8,1.9-7,1.9-3,0-5.5-1-7.4-2.9-1.9-2-2.9-4.7-2.9-8.3ZM123.7,59.4v-3.2l-.2-.2v-22c0-.5,0-.9-.2-1.1s-.4-.4-.8-.4h-1.8c-.4-.2-.6-.3-.8-.5-.1-.2-.2-.4-.2-.7s.1-.6.3-.8.5-.4,1-.6l10.6-3.4c.7-.3,1.3-.5,1.8-.6.5-.1.9-.2,1.3-.2.6,0,1.1.2,1.4.5.3.3.5.8.5,1.4v30.9c0,.7,0,1.2.3,1.5s.5.5.9.7l1.5.4c.4.1.6.3.8.5.2.2.3.4.3.7s-.1.7-.4.9c-.3.2-.7.3-1.2.3h-11.2c-1.1,0-2-.4-2.7-1.2-.7-.8-1.1-1.8-1.1-3Z"/>
    <path class="st2" d="M159.5,27.6v30.9c0,.7,0,1.2.3,1.5s.5.5.9.7l1.5.4c.6.3.9.7.9,1.2,0,.9-.5,1.3-1.6,1.3h-17.2c-.5,0-.9-.1-1.2-.3-.3-.2-.4-.5-.4-.9s0-.5.2-.7c.2-.2.4-.4.8-.5l1.6-.4c.4-.1.7-.4.8-.7s.2-.8.2-1.5v-24.6c0-.5,0-.8-.2-1.1-.2-.2-.4-.4-.8-.4h-1.8c-.3-.2-.6-.3-.7-.5-.1-.2-.2-.4-.2-.7s0-.6.3-.8c.2-.2.5-.4,1-.6l10.5-3.4c.8-.3,1.4-.5,1.8-.6.4-.1.9-.2,1.3-.2.6,0,1.1.2,1.4.5s.5.8.5,1.4ZM158.2,36.6l-1.4-1.4,1.5-1.3c3.2-3,6.1-5.1,8.6-6.3,2.5-1.2,4.8-1.8,6.9-1.8,3.1,0,5.5,1,7.4,2.9,1.9,2,2.8,4.7,2.8,8.3v21.6c0,.7.1,1.2.3,1.6.2.3.5.6.9.7l1.4.4c.6.3.9.7.9,1.2,0,.9-.5,1.3-1.6,1.3h-17c-1.1,0-1.6-.4-1.6-1.3s.3-.9.9-1.2l1.5-.4c.4-.1.7-.4.9-.7s.3-.9.3-1.6v-19.9c0-2-.4-3.5-1.3-4.5-.9-1-2.1-1.5-3.7-1.5s-2,.2-3.1.7c-1,.4-2.1,1.1-3.1,2l-1.5,1.3ZM182.7,36.6l-1.4-1.4,1.4-1.3c3.3-3,6.1-5.1,8.6-6.3,2.5-1.2,4.8-1.8,6.9-1.8,3.1,0,5.5,1,7.4,2.9,1.9,2,2.8,4.7,2.8,8.3v21.6c0,.7,0,1.3.3,1.6.2.3.5.6.9.7l1.4.4c.4.1.6.3.8.5.2.2.2.5.2.7,0,.4-.1.7-.4.9-.3.2-.6.3-1.2.3h-17.2c-1.1,0-1.6-.4-1.6-1.3s.3-.9.9-1.2l1.5-.4c.4-.1.7-.4.9-.7s.3-.9.3-1.6v-19.9c0-2-.4-3.5-1.3-4.5-.9-1-2.1-1.5-3.7-1.5s-2,.2-3.1.7c-1,.4-2.1,1.1-3.1,2l-1.5,1.3Z"/>
    <path class="st2" d="M230.9,27.6v30.9c0,.7,0,1.2.3,1.5s.5.5.9.7l1.5.4c.4.1.7.3.8.5s.2.4.2.7-.1.7-.4.9c-.3.2-.6.3-1.2.3h-17.4c-.5,0-.9-.1-1.2-.3s-.4-.5-.4-.9,0-.5.2-.7c.2-.2.4-.4.8-.5l1.5-.4c.4-.1.7-.4.9-.7s.2-.8.2-1.5v-24.6c0-.5,0-.8-.2-1.1-.2-.2-.4-.4-.8-.4h-1.8c-.3-.2-.6-.3-.8-.5-.2-.2-.2-.4-.2-.7s.1-.6.3-.8c.2-.2.6-.4,1.1-.6l10.5-3.4c.8-.3,1.4-.5,1.9-.6.4-.1.8-.2,1.2-.2.6,0,1.1.2,1.5.5.3.4.5.8.5,1.4ZM223.8,21.4c-2.4,0-4.2-.6-5.6-1.9s-2.1-2.9-2.1-5,.7-3.6,2.1-4.9,3.3-1.9,5.6-1.9,4.2.6,5.7,1.9,2.1,2.9,2.1,4.9-.7,3.7-2.1,5-3.3,1.9-5.7,1.9Z"/>
  </g>
</svg>