<?xml version="1.0" encoding="UTF-8"?>
<svg xmlns="http://www.w3.org/2000/svg" xmlns:xlink="http://www.w3.org/1999/xlink" version="1.1" viewBox="0 0 218.7 218.3">
  <!-- Generator: Adobe Illustrator 30.1.0, SVG Export Plug-In . SVG Version: 2.1.1 Build 136)  -->
  <defs>
    <style>
      .st0 {
        fill: url(#linear-gradient1);
      }

      .st1 {
        fill: url(#linear-gradient);
      }

      .st2 {
        fill: #fbf8f5;
      }

      .st3 {
        fill: #f4a582;
      }
    </style>
    <linearGradient id="linear-gradient" x1="85.7" y1="57.8" x2="138.7" y2="110.8" gradientUnits="userSpaceOnUse">
      <stop offset="0" stop-color="#f5c98a"/>
      <stop offset=".6" stop-color="#f4a582"/>
      <stop offset="1" stop-color="#e8a0bf"/>
    </linearGradient>
    <linearGradient id="linear-gradient1" x1="38.4" y1="130.7" x2="186" y2="130.7" gradientUnits="userSpaceOnUse">
      <stop offset="0" stop-color="#f5c98a" stop-opacity=".4"/>
      <stop offset=".6" stop-color="#f4a582" stop-opacity=".6"/>
      <stop offset="1" stop-color="#e8a0bf" stop-opacity=".4"/>
    </linearGradient>
  </defs>
  <g id="Wordmark">
    <g>
      <path class="st2" d="M28.5,138v68.7c0,.9.1,1.6.3,2s.6.7,1.1.9l1.9.5c.5.2.9.4,1.1.6s.3.6.3,1-.2.9-.5,1.2c-.3.3-.9.4-1.6.4H8.7c-.7,0-1.2-.1-1.5-.4-.3-.3-.5-.7-.5-1.2s.1-.7.3-.9c.2-.3.6-.5,1.1-.7l1.9-.5c.5-.2.9-.5,1.1-.9.2-.4.3-1.1.3-2v-60.5c0-.7-.1-1.1-.3-1.4-.2-.3-.5-.4-1-.5l-2.3-.2c-.4-.1-.8-.3-1-.5-.2-.2-.3-.6-.3-.9s.1-.8.4-1c.3-.2.7-.5,1.4-.7l13.6-4.4c1-.4,1.8-.6,2.4-.8.6-.2,1.1-.2,1.5-.2.9,0,1.5.2,1.9.7.4.5.6,1.1.6,1.8Z"/>
      <path class="st2" d="M39.8,199.8v-25c0-.7-.1-1.1-.3-1.4s-.5-.5-1-.5l-2.3-.2c-.5-.1-.8-.3-1-.5s-.3-.5-.3-.9.1-.8.4-1.1.7-.5,1.4-.8l13.6-4.4c1-.4,1.8-.6,2.4-.8.6-.1,1.1-.2,1.6-.2.8,0,1.5.2,1.9.7.4.5.6,1,.6,1.8v31.1c0,2.6.6,4.5,1.8,5.8,1.2,1.3,2.8,1.9,4.8,1.9s2.7-.3,4-.9c1.4-.6,2.7-1.4,4-2.6l1.9-1.7,1.8,1.9-1.9,1.7c-4.2,3.8-8,6.6-11.2,8.2-3.3,1.6-6.3,2.4-9,2.4-3.9,0-7.2-1.3-9.6-3.8-2.5-2.5-3.7-6.1-3.7-10.8ZM71.7,207.7v-4.2l-.3-.2v-28.4c0-.7-.1-1.1-.3-1.4s-.5-.5-1-.5l-2.3-.2c-.5-.1-.8-.3-1-.5-.2-.2-.3-.5-.3-.9s.1-.8.4-1.1.7-.5,1.3-.8l13.7-4.4c1-.3,1.7-.6,2.3-.8.6-.2,1.2-.2,1.7-.2.8,0,1.4.2,1.8.7.4.5.6,1,.6,1.8v40c0,.9.1,1.6.3,2s.6.7,1.1.9l2,.5c.5.2.8.4,1.1.6.2.3.3.6.3,1s-.2.9-.5,1.2c-.3.3-.9.4-1.6.4h-14.5c-1.4,0-2.6-.5-3.5-1.6-1-1.1-1.4-2.4-1.4-3.9Z"/>
      <path class="st2" d="M118,166.6v40.1c0,.9.1,1.6.3,2s.6.7,1.1.9l1.9.5c.8.3,1.1.9,1.1,1.6,0,1.1-.7,1.7-2.1,1.7h-22.3c-.7,0-1.2-.1-1.5-.4-.3-.3-.5-.7-.5-1.2s.1-.7.3-.9c.2-.3.6-.5,1-.7l2-.5c.5-.2.9-.5,1.1-.9s.3-1.1.3-2v-31.9c0-.6-.1-1.1-.3-1.4-.2-.3-.5-.5-1-.5l-2.3-.2c-.4-.1-.8-.3-1-.5-.2-.2-.3-.6-.3-.9s.1-.8.4-1c.2-.2.7-.5,1.3-.7l13.6-4.4c1-.4,1.8-.6,2.4-.8.6-.2,1.1-.2,1.7-.2.8,0,1.5.2,1.9.7s.6,1.1.6,1.8ZM116.4,178.1l-1.8-1.8,1.9-1.7c4.2-3.9,7.9-6.6,11.1-8.2,3.2-1.6,6.2-2.4,9-2.4,4,0,7.2,1.3,9.6,3.8,2.4,2.5,3.6,6.1,3.6,10.8v27.9c0,.9.1,1.6.4,2,.3.4.7.8,1.2,1l1.8.5c.8.3,1.1.9,1.1,1.6,0,1.1-.7,1.7-2,1.7h-22.1c-1.4,0-2.1-.6-2.1-1.7s.4-1.2,1.2-1.6l1.9-.5c.6-.2.9-.5,1.2-.9s.3-1.1.3-2v-25.7c0-2.6-.6-4.6-1.7-5.8-1.1-1.3-2.8-1.9-4.8-1.9s-2.6.3-4,.9c-1.3.6-2.7,1.4-4,2.6l-1.9,1.7ZM148.1,178.1l-1.8-1.8,1.9-1.7c4.2-3.9,7.9-6.6,11.2-8.2,3.2-1.6,6.2-2.4,9-2.4,4,0,7.2,1.3,9.6,3.8,2.4,2.5,3.6,6.1,3.6,10.8v27.9c0,.9.1,1.6.4,2.1.2.4.6.8,1.2.9l1.9.5c.5.2.8.4,1,.7.2.3.3.6.3.9,0,.5-.2.9-.5,1.2-.3.3-.8.4-1.5.4h-22.3c-1.4,0-2.1-.6-2.1-1.7s.4-1.2,1.1-1.6l2-.5c.6-.2.9-.5,1.2-.9s.3-1.1.3-2v-25.7c0-2.6-.6-4.6-1.7-5.8-1.1-1.3-2.8-1.9-4.8-1.9s-2.6.3-4,.9c-1.3.6-2.7,1.4-4,2.6l-1.9,1.7Z"/>
      <path class="st2" d="M210.5,166.6v40.1c0,.9.1,1.6.3,2s.6.7,1.1.9l1.9.5c.5.2.9.4,1.1.6s.3.6.3,1-.2.9-.5,1.2c-.3.3-.8.4-1.5.4h-22.6c-.7,0-1.2-.1-1.5-.4s-.5-.7-.5-1.2.1-.7.3-.9c.2-.3.6-.5,1-.7l2-.5c.6-.2.9-.5,1.1-.9s.3-1.1.3-2v-31.9c0-.6-.1-1.1-.3-1.4-.2-.3-.5-.5-1-.5l-2.3-.2c-.5-.1-.8-.3-1-.5-.2-.2-.3-.6-.3-.9s.1-.8.4-1c.3-.2.7-.5,1.4-.7l13.6-4.4c1-.4,1.8-.6,2.4-.8.6-.2,1.1-.2,1.6-.2.8,0,1.5.2,1.9.7.4.5.6,1.1.6,1.8ZM201.3,158.5c-3,0-5.5-.8-7.3-2.5s-2.7-3.8-2.7-6.4.9-4.7,2.8-6.4,4.3-2.5,7.3-2.5,5.5.8,7.3,2.5,2.8,3.8,2.8,6.4-.9,4.8-2.8,6.4-4.3,2.5-7.3,2.5Z"/>
    </g>
  </g>
  <g id="Sun">
    <circle class="st1" cx="112.2" cy="84.3" r="37.5"/>
    <rect class="st3" x="66.1" y="24.1" width="12.3" height="27.8" rx="4.9" ry="4.9" transform="translate(-7.5 55.4) rotate(-40)"/>
    <rect class="st3" x="106" y="3.7" width="12.3" height="33.9" rx="4.9" ry="4.9"/>
    <rect class="st3" x="43.3" y="54.8" width="13.2" height="24.7" rx="5.2" ry="5.2" transform="translate(-28.4 96.6) rotate(-74)"/>
    <rect class="st3" x="166.7" y="54.8" width="13.2" height="24.7" rx="5.2" ry="5.2" transform="translate(190.1 -117.9) rotate(74)"/>
    <rect class="st3" x="144.7" y="24.2" width="12.3" height="27.8" rx="4.9" ry="4.9" transform="translate(59.8 -88.1) rotate(40)"/>
    <rect id="Horizon" class="st0" x="38.4" y="126.7" width="147.6" height="7.9" rx="3.1" ry="3.1"/>
  </g>
</svg>